# xmcd CD database file
#
# Track frame offsets:
#	150
#	18002
#	33300
#	49817
#	64542
#	85742
#	104052
#	123422
#	145320
#	162597
#	180967
#	205555
#	227525
#	243680
#
# Disc length: 3544 seconds
#
# Revision: 0
# Processed by: cddbd v1.5.2PL0 Copyright (c) Steve Scherf et al.
# Submitted via: CDex 1.70beta2
#
DISCID=b30dd60e
DTITLE=Various Artist - Ladies Of Jazz "N" Soul
DYEAR=1900
DGENRE=Jazz
TTITLE0=Dinah Washington - What A Difference A Day Makes
TTITLE1=Etta James - Don't Get Around Much Anymore
TTITLE2=Nancy Wilson - (You Don't Know) How Glad I Am
TTITLE3=Nina Simone - Do What You Got To Do
TTITLE4=Gloria Lynne - Watermelon Man
TTITLE5=Marlena Shaw - Go Away Little Boy
TTITLE6=Esther Phillips - Stormy Weather
TTITLE7=Randy Crawford - Last Dance At Danceland
TTITLE8=Angela Bofill - Under The Moon And Over The Sky
TTITLE9=Dee Dee Bridgewater - Love From The Sun
TTITLE10=Jean Carne - Infant Eyes - Revolution (Medley)
TTITLE11=Dianne Reeves - Never Too Far
TTITLE12=Rachelle Ferrell - Til You Come Back To Me
TTITLE13=Patti Austin - Ability To Swing
EXTD=
EXTT0=
EXTT1=
EXTT2=
EXTT3=
EXTT4=
EXTT5=
EXTT6=
EXTT7=
EXTT8=
EXTT9=
EXTT10=
EXTT11=
EXTT12=
EXTT13=
PLAYORDER=
